<?xml version="1.0" encoding="UTF-8"?>
<svg id="Layer_2" data-name="Layer 2" xmlns="http://www.w3.org/2000/svg" viewBox="0 0 576.05 125.8">
  <defs>
    <style>
      .cls-1 {
        stroke-width: 0px;
      }

      .cls-1, .cls-2 {
        fill: #000;
      }

      .cls-2 {
        font-family: LeagueSpartan-Bold, 'League Spartan';
        font-size: 119.81px;
        font-variation-settings: 'wght' 700;
        font-weight: 700;
      }
    </style>
  </defs>
  <g id="Layer_1-2" data-name="Layer 1">
    <g>
      <path class="cls-1" d="M75.13,62.9c0,.07,0,.14,0,.2,0,13-10.54,23.54-23.54,23.54s-23.54-10.54-23.54-23.54,10.54-23.54,23.54-23.54V11.31C23.09,11.37,0,34.49,0,63s23.14,51.69,51.69,51.69,51.69-23.14,51.69-51.69c0-.03,0-.07,0-.1h-28.25Z"/>
      <path class="cls-1" d="M75.13,62.9c0-.07,0-.14,0-.2,0-13,10.54-23.54,23.54-23.54s23.54,10.54,23.54,23.54-10.54,23.54-23.54,23.54v28.25c28.5-.06,51.59-23.18,51.59-51.69S127.12,11.11,98.57,11.11s-51.69,23.14-51.69,51.69c0,.03,0,.07,0,.1h28.25Z"/>
    </g>
    <text class="cls-2" transform="translate(161.39 99.44)"><tspan x="0" y="0">Synkrit.</tspan></text>
  </g>
</svg>